<svg width="80" height="80" viewBox="0 0 80 80" fill="none" xmlns="http://www.w3.org/2000/svg">
<path d="M80 40C80 62.0914 62.0914 80 40 80C17.9086 80 0 62.0914 0 40C0 17.9086 17.9086 0 40 0C62.0914 0 80 17.9086 80 40ZM18.3657 40C18.3657 51.9483 28.0517 61.6343 40 61.6343C51.9483 61.6343 61.6343 51.9483 61.6343 40C61.6343 28.0517 51.9483 18.3657 40 18.3657C28.0517 18.3657 18.3657 28.0517 18.3657 40Z" fill="#162533"/>
<path d="M80 40C80 62.0914 62.0914 80 40 80C17.9086 80 0 62.0914 0 40C0 17.9086 17.9086 0 40 0C62.0914 0 80 17.9086 80 40ZM18.3575 40C18.3575 51.9528 28.0472 61.6425 40 61.6425C51.9528 61.6425 61.6425 51.9528 61.6425 40C61.6425 28.0472 51.9528 18.3575 40 18.3575C28.0472 18.3575 18.3575 28.0472 18.3575 40Z" fill="#FF9090"/>
</svg>
