<svg width="193" height="193" viewBox="0 0 193 193" fill="none" xmlns="http://www.w3.org/2000/svg">
<path d="M171 97C171 138.421 137.421 172 96 172C54.5786 172 21 138.421 21 97C21 55.5786 54.5786 22 96 22C137.421 22 171 55.5786 171 97ZM61.218 97C61.218 116.21 76.7904 131.782 96 131.782C115.21 131.782 130.782 116.21 130.782 97C130.782 77.7904 115.21 62.218 96 62.218C76.7904 62.218 61.218 77.7904 61.218 97Z" fill="#8A9DA2"/>
<path d="M115 30.8588C115 37.5642 106.717 43 96.5 43C86.2827 43 78 37.5642 78 30.8588C78 24.1534 86.2827 0 96.5 0C106.717 0 115 24.1534 115 30.8588Z" fill="#8A9DA2"/>
<path d="M30.8588 78C37.5642 78 43 86.2827 43 96.5C43 106.717 37.5642 115 30.8588 115C24.1534 115 0 106.717 0 96.5C0 86.2827 24.1534 78 30.8588 78Z" fill="#8A9DA2"/>
<path d="M60.9834 34.8205C65.7249 39.5619 63.7118 49.2624 56.4871 56.4871C49.2624 63.7118 39.5619 65.7249 34.8205 60.9834C30.0791 56.242 18.8568 33.3062 26.0815 26.0815C33.3062 18.8568 56.242 30.0791 60.9834 34.8205Z" fill="#8A9DA2"/>
<path d="M32.8205 132.585C37.5619 127.844 47.2624 129.857 54.4871 137.081C61.7118 144.306 63.7249 154.007 58.9834 158.748C54.242 163.489 31.3062 174.712 24.0815 167.487C16.8568 160.262 28.0791 137.327 32.8205 132.585Z" fill="#8A9DA2"/>
<path d="M132.585 154.748C127.844 150.007 129.857 140.306 137.081 133.081C144.306 125.857 154.007 123.844 158.748 128.585C163.489 133.327 174.712 156.262 167.487 163.487C160.262 170.712 137.327 159.489 132.585 154.748Z" fill="#8A9DA2"/>
<path d="M154.748 64.9834C150.007 69.7249 140.306 67.7118 133.081 60.4871C125.857 53.2624 123.844 43.5619 128.585 38.8205C133.327 34.0791 156.262 22.8568 163.487 30.0815C170.712 37.3062 159.489 60.242 154.748 64.9834Z" fill="#8A9DA2"/>
<path d="M162.141 115C155.436 115 150 106.717 150 96.5C150 86.2827 155.436 78 162.141 78C168.847 78 193 86.2827 193 96.5C193 106.717 168.847 115 162.141 115Z" fill="#8A9DA2"/>
<path d="M78 162.141C78 155.436 86.2827 150 96.5 150C106.717 150 115 155.436 115 162.141C115 168.847 106.717 193 96.5 193C86.2827 193 78 168.847 78 162.141Z" fill="#8A9DA2"/>
</svg>
