<svg width="80" height="80" viewBox="0 0 80 80" fill="none" xmlns="http://www.w3.org/2000/svg">
<circle cx="40" cy="40" r="37.5" fill="#202F3E" stroke="#91FFEB" stroke-width="5"/>
<path d="M58.1667 36.8333C58.1667 46.9586 49.9586 55.1667 39.8333 55.1667C29.7081 55.1667 21.5 46.9586 21.5 36.8333C21.5 26.7081 29.7081 18.5 39.8333 18.5C49.9586 18.5 58.1667 26.7081 58.1667 36.8333Z" fill="#202F3E" stroke="#91FFEB" stroke-width="5"/>
<path d="M20.9944 67.6071C24.7872 62.8029 30.5711 60 36.692 60H41.9766C48.8389 60 55.222 63.5182 58.8864 69.3201L59 69.5L56 71.5V71.5C52.5426 66.7854 47.0459 64 41.1995 64H40H38.3005C32.4541 64 26.9574 66.7854 23.5 71.5V71.5L19.5 69.5L20.9944 67.6071Z" fill="#91FFEB"/>
</svg>
