<svg width="200" height="200" viewBox="0 0 200 200" fill="none" xmlns="http://www.w3.org/2000/svg">
<rect width="200" height="200" rx="20" fill="#202F3E"/>
<path d="M30.55 57.55H48.25L79.9 119.05L79 57.55H94.15H95.5V58.9C95 59.5 94.65 60.15 94.45 60.85C94.35 61.55 94.3 62.75 94.3 64.45V151H78.55L45.85 85.45V151H30.55V57.55ZM144.85 152.5C140.85 152.5 137.35 151.85 134.35 150.55C131.45 149.25 129 147.15 127 144.25C125.1 141.35 123.7 137.5 122.8 132.7C122 127.9 121.75 121.95 122.05 114.85L124 64.75L141.55 62.5L142.9 62.35L143.05 63.7C142.65 64.4 142.25 65.1 141.85 65.8C141.45 66.5 141.2 67.7 141.1 69.4L139.45 90.1L140.2 91.15L139 114.55C138.7 121.05 138.9 126.1 139.6 129.7C140.4 133.2 141.55 135.6 143.05 136.9C144.65 138.2 146.55 138.85 148.75 138.85C151.95 138.85 154.8 138.2 157.3 136.9C159.9 135.6 162.3 134.1 164.5 132.4L168.1 144.7C164.7 147.2 161.05 149.15 157.15 150.55C153.35 151.85 149.25 152.5 144.85 152.5ZM108.85 81.25H162.55L162.4 94.6H108.55L108.85 81.25Z" fill="#90FFEB"/>
</svg>
