<svg width="80" height="80" viewBox="0 0 80 80" fill="none" xmlns="http://www.w3.org/2000/svg">
<path d="M80 40C80 62.0914 62.0914 80 40 80C17.9086 80 0 62.0914 0 40C0 17.9086 17.9086 0 40 0C62.0914 0 80 17.9086 80 40ZM18.3657 40C18.3657 51.9483 28.0517 61.6343 40 61.6343C51.9483 61.6343 61.6343 51.9483 61.6343 40C61.6343 28.0517 51.9483 18.3657 40 18.3657C28.0517 18.3657 18.3657 28.0517 18.3657 40Z" fill="#162533"/>
<path d="M44.8514 9.56295C45.6493 4.55686 42.2022 -0.259883 37.1459 0.101903C30.9458 0.545527 24.8905 2.4315 19.4824 5.66305C11.4269 10.4765 5.32022 17.9688 2.23044 26.8296C-0.859342 35.6903 -0.73549 45.3553 2.58033 54.1339C4.80644 60.0276 8.3761 65.2698 12.956 69.4725C16.6911 72.8999 22.3858 71.2709 24.8737 66.8541V66.8541C27.3616 62.4373 25.5613 56.9002 22.5596 52.8152C21.4017 51.2396 20.4546 49.5031 19.7536 47.6473C17.9595 42.8975 17.8925 37.6682 19.5643 32.874C21.2361 28.0798 24.5402 24.0259 28.8987 21.4216C30.6016 20.404 32.4231 19.633 34.3096 19.1189C39.2006 17.7862 44.0535 14.569 44.8514 9.56295V9.56295Z" fill="url(#paint0_radial_60_30)"/>
<defs>
<radialGradient id="paint0_radial_60_30" cx="0" cy="0" r="1" gradientUnits="userSpaceOnUse" gradientTransform="translate(39 5) rotate(122.954) scale(86.4017)">
<stop stop-color="#F6FF91"/>
<stop offset="1" stop-color="#F6FF91" stop-opacity="0"/>
</radialGradient>
</defs>
</svg>
